# xmcd
#
# Track frame offsets:
# 150
# 15292
# 29110
# 41509
# 53546
# 67705
# 80568
# 94040
# 107838
# 121721
# 134730
# 147707
# 160316
# 174347
# 186279
# 199578
#
# Disc length: 2844 seconds
#
# Revision: 1
# Processed by: cddbd v1.5.1PL2 Copyright (c) Steve Scherf et al.
# Submitted via: Easy CD Ripper v2.37
#
DISCID=d60b1a10
DTITLE=The Carter Family - Worried Man Blues
DYEAR=1995
DGENRE=Country
TTITLE0=I Have an Aged Mother
TTITLE1=The Dying Soldier
TTITLE2=Worried Man Blues
TTITLE3=Lonesome Valley
TTITLE4=On the Rock Where Moses Stood
TTITLE5=Room in Heaven for Me
TTITLE6=Lonesome Pine Special
TTITLE7=No More the Moon Shines on Lorena
TTITLE8=On My Way to Canaan's Land
TTITLE9=Where Shall I Be?
TTITLE10=Sow 'Em on the Mountain
TTITLE11=Daling Nellie Across the Sea
TTITLE12=The Birds Were Singing
TTITLE13=Weary Prodigal Son
TTITLE14=My Old Cottage Home
TTITLE15=When I'm Gone - The Carter
EXTD=
EXTT0=
EXTT1=
EXTT2=
EXTT3=
EXTT4=
EXTT5=
EXTT6=
EXTT7=
EXTT8=
EXTT9=
EXTT10=
EXTT11=
EXTT12=
EXTT13=
EXTT14=
EXTT15=
PLAYORDER=
